<svg xmlns="http://www.w3.org/2000/svg" viewBox="0 0 740.56 578"><defs><style>.cls-1{fill:#c39fee;}.cls-2{fill:#ccf;}.cls-3{fill:#c6f;}.cls-4{fill:#fd4897;}.cls-5{fill:#050505;}.cls-6{fill:#fff;}.cls-7{fill:none;stroke:#020202;stroke-linecap:round;stroke-linejoin:round;stroke-width:23px;}</style></defs><g id="Layer_2" data-name="Layer 2"><g id="Layer_22" data-name="Layer 22"><g id="mochi"><path class="cls-1" d="M736.48,292.75c12.76,89.8-4.84,166-68.58,214.12-62,49.06-170.11,70.08-297.72,70.93-127.6-.85-235.73-21.87-297.71-70.93C8.73,458.73-8.87,382.55,3.88,292.75,18.68,203,58.2,125.91,121.24,75.73,183.93,24.8,270.13.76,370.18,0c100.06.76,186.26,24.8,249,75.72C682.16,125.91,721.69,203,736.48,292.75Z"/><path class="cls-2" d="M43.08,298c-12.75,89.8,4.85,166,68.59,214.12,38.73,30.66,95.49,50.37,163.75,61-85.67-8.77-156.86-29.72-202.75-66.05C8.93,458.93-8.67,382.75,4.08,293c14.8-89.76,54.32-166.84,117.36-217C184.12,25,270.32,1,370.38.2a550.08,550.08,0,0,1,87.45,7.31Q434.22,5.38,409.38,5.2C309.32,6,223.12,30,160.44,80.92,97.4,131.11,57.88,208.19,43.08,298Z"/><path class="cls-3" d="M668.09,507.07c-62,49.06-170.1,70.08-297.71,70.93q-12.37-.09-24.5-.42c116.9-3.27,215.24-24.62,273.21-70.51,63.74-48.14,81.34-124.32,68.59-214.12q-1.21-7.41-2.67-14.71c-.39-3.41-.84-6.84-1.33-10.29-14.8-89.76-54.32-166.84-117.36-217a284.08,284.08,0,0,0-34.76-24.13c32.73,12.06,62.2,28.36,87.76,49.13,63,50.19,102.56,127.27,117.36,217C749.43,382.75,731.83,458.93,668.09,507.07Z"/></g><ellipse class="cls-4" cx="209.68" cy="401.75" rx="29.5" ry="18"/><ellipse class="cls-4" cx="525.68" cy="399.75" rx="29.5" ry="18"/><g id="mouth_smiling_w_teeth" data-name="mouth smiling w teeth"><g id="upside_down_teeth_on_bottom" data-name="upside down teeth on bottom"><path class="cls-5" d="M440.3,418c-84.5,124.28-156-22.36-156-22.36s29.09-8.23,62.88-14.42c6.55-1.2,13.27-2.32,20-3.29,1.67-.24,3.33-.47,5-.68,6.78-.9,13.5-1.63,20-2.1C434.09,372.12,466.48,379.51,440.3,418Z"/></g><path class="cls-6" d="M367.18,377.94v3.3a10,10,0,0,1-20,0h0C353.73,380,360.45,378.91,367.18,377.94Z"/><path class="cls-6" d="M392.18,375.16v6.08a10,10,0,0,1-20,0v-4C379,376.36,385.68,375.63,392.18,375.16Z"/></g><circle class="cls-6" cx="247.68" cy="263.25" r="78.5"/><path class="cls-7" d="M168.86,279.56a79.49,79.49,0,1,1,8.57,22.76c-3.47-6.13-5.3-14.44-10.38-19.67-6.67-6.88-20.36-5.64-28.71-3.78a53.62,53.62,0,0,0-18.45,8c-12.84,8.75-21.8,22.33-27.44,36.81C84,345.33,83,371.38,96.26,390.44c12.73,18.34,35.91,26.88,49.79,44.38,12.1,15.26,15.73,36.33,11.51,55.35s-15.76,36-30.53,48.66c-28,24.07-68.2,33-103.76,23.18"/><g id="eye"><circle cx="257.18" cy="279.75" r="34"/><circle class="cls-6" cx="269.68" cy="264.25" r="8.5"/></g><g id="eye-2" data-name="eye"><circle cx="484.18" cy="279.75" r="34"/><circle class="cls-6" cx="496.68" cy="264.25" r="8.5"/></g></g></g></svg>